<svg xmlns="http://www.w3.org/2000/svg" viewBox="0 0 900 236" width="100%" role="img" aria-label="Design skills board" xmlns:c2pa="http://c2pa.org/manifest"><style>@keyframes s{0%,12%{stroke:#3d7bff}16.7%,28.7%{stroke:#ffc800}33.3%,45.3%{stroke:#4cb96a}50%,62%{stroke:#ff8a3d}66.7%,78.7%{stroke:#ff5fa2}83.3%,95.3%{stroke:#4dd0ff}100%{stroke:#3d7bff}}.as{animation:s 36s linear infinite}@keyframes b{0%,55%{opacity:1}70%,90%{opacity:.15}100%{opacity:1}}.bk{animation:b 2.4s ease-in-out infinite}.h{font:600 18px 'Helvetica Neue',Arial,sans-serif;fill:#fff}.g{fill:#7a7a7f}.t{font:700 34px 'Helvetica Neue',Arial,sans-serif;fill:#fff;letter-spacing:-.5px}.u{font:600 30px 'Helvetica Neue',Arial,sans-serif;fill:#fff;letter-spacing:-.5px}</style><defs><pattern id="p" width="4" height="4" patternUnits="userSpaceOnUse"><circle cx="2" cy="2" r="1.2" fill="#28282b"/></pattern><pattern id="q" width="8" height="8" patternUnits="userSpaceOnUse"><circle cx="4" cy="4" r="2.4" fill="#28282b"/></pattern></defs><rect width="900" height="236" rx="14" fill="#0e0e0f"/><g transform="translate(0,-56)"><text class="h" x="28" y="108">Gate</text><text class="h" x="192" y="108">Skill</text><text class="h g" x="672" y="108">Status</text><rect x="28" y="120" width="844" height="152" fill="url(#p)"/><g opacity="0"><animate attributeName="opacity" from="0" to="1" dur=".4s" begin="0.00s" fill="freeze"/><path class="as" stroke="#3d7bff" stroke-width="3.2" stroke-linecap="round" fill="none" d="M30 126h0M34 126h0M38 126h0M42 126h0M30 130h0M46 130h0M30 134h0M46 134h0M30 138h0M46 138h0M30 142h0M46 142h0M30 146h0M46 146h0M30 150h0M34 150h0M38 150h0M42 150h0M58 126h0M62 126h0M66 126h0M54 130h0M70 130h0M54 134h0M66 134h0M70 134h0M54 138h0M62 138h0M70 138h0M54 142h0M58 142h0M70 142h0M54 146h0M70 146h0M58 150h0M62 150h0M66 150h0M86 126h0M82 130h0M86 130h0M86 134h0M86 138h0M86 142h0M86 146h0M82 150h0M86 150h0M90 150h0"/><path class="as" stroke="#3d7bff" stroke-width="3.2" stroke-linecap="round" fill="none" d="M194 126h0M198 126h0M202 126h0M206 126h0M194 130h0M210 130h0M194 134h0M210 134h0M194 138h0M198 138h0M202 138h0M206 138h0M194 142h0M194 146h0M194 150h0M218 126h0M222 126h0M226 126h0M230 126h0M218 130h0M234 130h0M218 134h0M234 134h0M218 138h0M222 138h0M226 138h0M230 138h0M218 142h0M226 142h0M218 146h0M230 146h0M218 150h0M234 150h0M242 126h0M246 126h0M250 126h0M254 126h0M258 126h0M242 130h0M242 134h0M242 138h0M246 138h0M250 138h0M254 138h0M242 142h0M242 146h0M242 150h0M246 150h0M250 150h0M254 150h0M258 150h0M270 126h0M274 126h0M278 126h0M282 126h0M266 130h0M266 134h0M270 138h0M274 138h0M278 138h0M282 142h0M282 146h0M266 150h0M270 150h0M274 150h0M278 150h0M290 126h0M294 126h0M298 126h0M302 126h0M306 126h0M290 130h0M290 134h0M290 138h0M294 138h0M298 138h0M302 138h0M290 142h0M290 146h0M290 150h0M294 150h0M298 150h0M302 150h0M306 150h0M314 126h0M330 126h0M314 130h0M318 130h0M330 130h0M314 134h0M322 134h0M330 134h0M314 138h0M326 138h0M330 138h0M314 142h0M330 142h0M314 146h0M330 146h0M314 150h0M330 150h0M338 126h0M342 126h0M346 126h0M350 126h0M354 126h0M346 130h0M346 134h0M346 138h0M346 142h0M346 146h0M346 150h0M366 126h0M370 126h0M374 126h0M362 130h0M378 130h0M362 134h0M378 134h0M362 138h0M366 138h0M370 138h0M374 138h0M378 138h0M362 142h0M378 142h0M362 146h0M378 146h0M362 150h0M378 150h0M386 126h0M390 126h0M394 126h0M398 126h0M402 126h0M394 130h0M394 134h0M394 138h0M394 142h0M394 146h0M394 150h0M410 126h0M414 126h0M418 126h0M422 126h0M426 126h0M418 130h0M418 134h0M418 138h0M418 142h0M418 146h0M410 150h0M414 150h0M418 150h0M422 150h0M426 150h0M438 126h0M442 126h0M446 126h0M434 130h0M450 130h0M434 134h0M450 134h0M434 138h0M450 138h0M434 142h0M450 142h0M434 146h0M450 146h0M438 150h0M442 150h0M446 150h0M458 126h0M474 126h0M458 130h0M462 130h0M474 130h0M458 134h0M466 134h0M474 134h0M458 138h0M470 138h0M474 138h0M458 142h0M474 142h0M458 146h0M474 146h0M458 150h0M474 150h0M506 126h0M510 126h0M514 126h0M518 126h0M506 130h0M522 130h0M506 134h0M522 134h0M506 138h0M522 138h0M506 142h0M522 142h0M506 146h0M522 146h0M506 150h0M510 150h0M514 150h0M518 150h0M530 126h0M534 126h0M538 126h0M542 126h0M546 126h0M530 130h0M530 134h0M530 138h0M534 138h0M538 138h0M542 138h0M530 142h0M530 146h0M530 150h0M534 150h0M538 150h0M542 150h0M546 150h0M558 126h0M562 126h0M566 126h0M570 126h0M554 130h0M554 134h0M558 138h0M562 138h0M566 138h0M570 142h0M570 146h0M554 150h0M558 150h0M562 150h0M566 150h0M578 126h0M582 126h0M586 126h0M590 126h0M594 126h0M586 130h0M586 134h0M586 138h0M586 142h0M586 146h0M578 150h0M582 150h0M586 150h0M590 150h0M594 150h0M606 126h0M610 126h0M614 126h0M618 126h0M602 130h0M602 134h0M602 138h0M614 138h0M618 138h0M602 142h0M618 142h0M602 146h0M618 146h0M606 150h0M610 150h0M614 150h0M618 150h0M626 126h0M642 126h0M626 130h0M630 130h0M642 130h0M626 134h0M634 134h0M642 134h0M626 138h0M638 138h0M642 138h0M626 142h0M642 142h0M626 146h0M642 146h0M626 150h0M642 150h0"/><path class="" stroke="#f2f2f2" stroke-width="3.2" stroke-linecap="round" fill="none" d="M678 126h0M682 126h0M686 126h0M674 130h0M690 130h0M674 134h0M690 134h0M674 138h0M690 138h0M674 142h0M690 142h0M674 146h0M690 146h0M678 150h0M682 150h0M686 150h0M698 126h0M714 126h0M698 130h0M702 130h0M714 130h0M698 134h0M706 134h0M714 134h0M698 138h0M710 138h0M714 138h0M698 142h0M714 142h0M698 146h0M714 146h0M698 150h0M714 150h0M746 126h0M750 126h0M754 126h0M758 126h0M762 126h0M754 130h0M754 134h0M754 138h0M754 142h0M754 146h0M754 150h0M770 126h0M774 126h0M778 126h0M782 126h0M786 126h0M778 130h0M778 134h0M778 138h0M778 142h0M778 146h0M770 150h0M774 150h0M778 150h0M782 150h0M786 150h0M794 126h0M810 126h0M794 130h0M798 130h0M806 130h0M810 130h0M794 134h0M802 134h0M810 134h0M794 138h0M802 138h0M810 138h0M794 142h0M810 142h0M794 146h0M810 146h0M794 150h0M810 150h0M818 126h0M822 126h0M826 126h0M830 126h0M834 126h0M818 130h0M818 134h0M818 138h0M822 138h0M826 138h0M830 138h0M818 142h0M818 146h0M818 150h0M822 150h0M826 150h0M830 150h0M834 150h0"/></g><g opacity="0"><animate attributeName="opacity" from="0" to="1" dur=".4s" begin="0.15s" fill="freeze"/><path class="" stroke="#f2f2f2" stroke-width="3.2" stroke-linecap="round" fill="none" d="M30 162h0M34 162h0M38 162h0M42 162h0M30 166h0M46 166h0M30 170h0M46 170h0M30 174h0M46 174h0M30 178h0M46 178h0M30 182h0M46 182h0M30 186h0M34 186h0M38 186h0M42 186h0M58 162h0M62 162h0M66 162h0M54 166h0M70 166h0M54 170h0M66 170h0M70 170h0M54 174h0M62 174h0M70 174h0M54 178h0M58 178h0M70 178h0M54 182h0M70 182h0M58 186h0M62 186h0M66 186h0M82 162h0M86 162h0M90 162h0M78 166h0M94 166h0M94 170h0M90 174h0M86 178h0M82 182h0M78 186h0M82 186h0M86 186h0M90 186h0M94 186h0"/><path class="" stroke="#f2f2f2" stroke-width="3.2" stroke-linecap="round" fill="none" d="M194 162h0M198 162h0M202 162h0M206 162h0M210 162h0M202 166h0M202 170h0M202 174h0M202 178h0M202 182h0M194 186h0M198 186h0M202 186h0M206 186h0M210 186h0M218 162h0M234 162h0M218 166h0M222 166h0M234 166h0M218 170h0M226 170h0M234 170h0M218 174h0M230 174h0M234 174h0M218 178h0M234 178h0M218 182h0M234 182h0M218 186h0M234 186h0M242 162h0M246 162h0M250 162h0M254 162h0M258 162h0M242 166h0M242 170h0M242 174h0M246 174h0M250 174h0M254 174h0M242 178h0M242 182h0M242 186h0M270 162h0M274 162h0M278 162h0M266 166h0M282 166h0M266 170h0M282 170h0M266 174h0M282 174h0M266 178h0M282 178h0M266 182h0M282 182h0M270 186h0M274 186h0M278 186h0M290 162h0M294 162h0M298 162h0M302 162h0M290 166h0M306 166h0M290 170h0M306 170h0M290 174h0M294 174h0M298 174h0M302 174h0M290 178h0M298 178h0M290 182h0M302 182h0M290 186h0M306 186h0M314 162h0M330 162h0M314 166h0M318 166h0M326 166h0M330 166h0M314 170h0M322 170h0M330 170h0M314 174h0M322 174h0M330 174h0M314 178h0M330 178h0M314 182h0M330 182h0M314 186h0M330 186h0M342 162h0M346 162h0M350 162h0M338 166h0M354 166h0M338 170h0M354 170h0M338 174h0M342 174h0M346 174h0M350 174h0M354 174h0M338 178h0M354 178h0M338 182h0M354 182h0M338 186h0M354 186h0M362 162h0M366 162h0M370 162h0M374 162h0M378 162h0M370 166h0M370 170h0M370 174h0M370 178h0M370 182h0M370 186h0M386 162h0M390 162h0M394 162h0M398 162h0M402 162h0M394 166h0M394 170h0M394 174h0M394 178h0M394 182h0M386 186h0M390 186h0M394 186h0M398 186h0M402 186h0M414 162h0M418 162h0M422 162h0M410 166h0M426 166h0M410 170h0M426 170h0M410 174h0M426 174h0M410 178h0M426 178h0M410 182h0M426 182h0M414 186h0M418 186h0M422 186h0M434 162h0M450 162h0M434 166h0M438 166h0M450 166h0M434 170h0M442 170h0M450 170h0M434 174h0M446 174h0M450 174h0M434 178h0M450 178h0M434 182h0M450 182h0M434 186h0M450 186h0M482 162h0M486 162h0M490 162h0M494 162h0M482 166h0M498 166h0M482 170h0M498 170h0M482 174h0M498 174h0M482 178h0M498 178h0M482 182h0M498 182h0M482 186h0M486 186h0M490 186h0M494 186h0M506 162h0M510 162h0M514 162h0M518 162h0M522 162h0M506 166h0M506 170h0M506 174h0M510 174h0M514 174h0M518 174h0M506 178h0M506 182h0M506 186h0M510 186h0M514 186h0M518 186h0M522 186h0M534 162h0M538 162h0M542 162h0M546 162h0M530 166h0M530 170h0M534 174h0M538 174h0M542 174h0M546 178h0M546 182h0M530 186h0M534 186h0M538 186h0M542 186h0M554 162h0M558 162h0M562 162h0M566 162h0M570 162h0M562 166h0M562 170h0M562 174h0M562 178h0M562 182h0M554 186h0M558 186h0M562 186h0M566 186h0M570 186h0M582 162h0M586 162h0M590 162h0M594 162h0M578 166h0M578 170h0M578 174h0M590 174h0M594 174h0M578 178h0M594 178h0M578 182h0M594 182h0M582 186h0M586 186h0M590 186h0M594 186h0M602 162h0M618 162h0M602 166h0M606 166h0M618 166h0M602 170h0M610 170h0M618 170h0M602 174h0M614 174h0M618 174h0M602 178h0M618 178h0M602 182h0M618 182h0M602 186h0M618 186h0"/><path class="" stroke="#f2f2f2" stroke-width="3.2" stroke-linecap="round" fill="none" d="M678 162h0M682 162h0M686 162h0M674 166h0M690 166h0M674 170h0M690 170h0M674 174h0M690 174h0M674 178h0M690 178h0M674 182h0M690 182h0M678 186h0M682 186h0M686 186h0M698 162h0M714 162h0M698 166h0M702 166h0M714 166h0M698 170h0M706 170h0M714 170h0M698 174h0M710 174h0M714 174h0M698 178h0M714 178h0M698 182h0M714 182h0M698 186h0M714 186h0M746 162h0M750 162h0M754 162h0M758 162h0M762 162h0M754 166h0M754 170h0M754 174h0M754 178h0M754 182h0M754 186h0M770 162h0M774 162h0M778 162h0M782 162h0M786 162h0M778 166h0M778 170h0M778 174h0M778 178h0M778 182h0M770 186h0M774 186h0M778 186h0M782 186h0M786 186h0M794 162h0M810 162h0M794 166h0M798 166h0M806 166h0M810 166h0M794 170h0M802 170h0M810 170h0M794 174h0M802 174h0M810 174h0M794 178h0M810 178h0M794 182h0M810 182h0M794 186h0M810 186h0M818 162h0M822 162h0M826 162h0M830 162h0M834 162h0M818 166h0M818 170h0M818 174h0M822 174h0M826 174h0M830 174h0M818 178h0M818 182h0M818 186h0M822 186h0M826 186h0M830 186h0M834 186h0"/></g><g opacity="0"><animate attributeName="opacity" from="0" to="1" dur=".4s" begin="0.30s" fill="freeze"/><path class="" stroke="#f2f2f2" stroke-width="3.2" stroke-linecap="round" fill="none" d="M30 198h0M34 198h0M38 198h0M42 198h0M30 202h0M46 202h0M30 206h0M46 206h0M30 210h0M46 210h0M30 214h0M46 214h0M30 218h0M46 218h0M30 222h0M34 222h0M38 222h0M42 222h0M58 198h0M62 198h0M66 198h0M54 202h0M70 202h0M54 206h0M66 206h0M70 206h0M54 210h0M62 210h0M70 210h0M54 214h0M58 214h0M70 214h0M54 218h0M70 218h0M58 222h0M62 222h0M66 222h0M78 198h0M82 198h0M86 198h0M90 198h0M94 198h0M90 202h0M86 206h0M90 210h0M94 214h0M78 218h0M94 218h0M82 222h0M86 222h0M90 222h0"/><path class="" stroke="#f2f2f2" stroke-width="3.2" stroke-linecap="round" fill="none" d="M194 198h0M198 198h0M202 198h0M206 198h0M194 202h0M210 202h0M194 206h0M210 206h0M194 210h0M210 210h0M194 214h0M210 214h0M194 218h0M210 218h0M194 222h0M198 222h0M202 222h0M206 222h0M222 198h0M226 198h0M230 198h0M218 202h0M234 202h0M218 206h0M234 206h0M218 210h0M222 210h0M226 210h0M230 210h0M234 210h0M218 214h0M234 214h0M218 218h0M234 218h0M218 222h0M234 222h0M242 198h0M246 198h0M250 198h0M254 198h0M258 198h0M250 202h0M250 206h0M250 210h0M250 214h0M250 218h0M250 222h0M270 198h0M274 198h0M278 198h0M266 202h0M282 202h0M266 206h0M282 206h0M266 210h0M270 210h0M274 210h0M278 210h0M282 210h0M266 214h0M282 214h0M266 218h0M282 218h0M266 222h0M282 222h0M314 198h0M330 198h0M314 202h0M330 202h0M314 206h0M330 206h0M314 210h0M330 210h0M314 214h0M330 214h0M318 218h0M326 218h0M322 222h0M338 198h0M342 198h0M346 198h0M350 198h0M354 198h0M346 202h0M346 206h0M346 210h0M346 214h0M346 218h0M338 222h0M342 222h0M346 222h0M350 222h0M354 222h0M366 198h0M370 198h0M374 198h0M378 198h0M362 202h0M362 206h0M366 210h0M370 210h0M374 210h0M378 214h0M378 218h0M362 222h0M366 222h0M370 222h0M374 222h0M386 198h0M402 198h0M386 202h0M402 202h0M386 206h0M402 206h0M386 210h0M402 210h0M386 214h0M402 214h0M386 218h0M402 218h0M390 222h0M394 222h0M398 222h0M414 198h0M418 198h0M422 198h0M410 202h0M426 202h0M410 206h0M426 206h0M410 210h0M414 210h0M418 210h0M422 210h0M426 210h0M410 214h0M426 214h0M410 218h0M426 218h0M410 222h0M426 222h0M434 198h0M434 202h0M434 206h0M434 210h0M434 214h0M434 218h0M434 222h0M438 222h0M442 222h0M446 222h0M450 222h0M458 198h0M462 198h0M466 198h0M470 198h0M474 198h0M466 202h0M466 206h0M466 210h0M466 214h0M466 218h0M458 222h0M462 222h0M466 222h0M470 222h0M474 222h0M482 198h0M486 198h0M490 198h0M494 198h0M498 198h0M498 202h0M494 206h0M490 210h0M486 214h0M482 218h0M482 222h0M486 222h0M490 222h0M494 222h0M498 222h0M510 198h0M514 198h0M518 198h0M506 202h0M522 202h0M506 206h0M522 206h0M506 210h0M510 210h0M514 210h0M518 210h0M522 210h0M506 214h0M522 214h0M506 218h0M522 218h0M506 222h0M522 222h0M530 198h0M534 198h0M538 198h0M542 198h0M546 198h0M538 202h0M538 206h0M538 210h0M538 214h0M538 218h0M538 222h0M554 198h0M558 198h0M562 198h0M566 198h0M570 198h0M562 202h0M562 206h0M562 210h0M562 214h0M562 218h0M554 222h0M558 222h0M562 222h0M566 222h0M570 222h0M582 198h0M586 198h0M590 198h0M578 202h0M594 202h0M578 206h0M594 206h0M578 210h0M594 210h0M578 214h0M594 214h0M578 218h0M594 218h0M582 222h0M586 222h0M590 222h0M602 198h0M618 198h0M602 202h0M606 202h0M618 202h0M602 206h0M610 206h0M618 206h0M602 210h0M614 210h0M618 210h0M602 214h0M618 214h0M602 218h0M618 218h0M602 222h0M618 222h0"/><path class="" stroke="#f2f2f2" stroke-width="3.2" stroke-linecap="round" fill="none" d="M678 198h0M682 198h0M686 198h0M674 202h0M690 202h0M674 206h0M690 206h0M674 210h0M690 210h0M674 214h0M690 214h0M674 218h0M690 218h0M678 222h0M682 222h0M686 222h0M698 198h0M714 198h0M698 202h0M702 202h0M714 202h0M698 206h0M706 206h0M714 206h0M698 210h0M710 210h0M714 210h0M698 214h0M714 214h0M698 218h0M714 218h0M698 222h0M714 222h0M746 198h0M750 198h0M754 198h0M758 198h0M762 198h0M754 202h0M754 206h0M754 210h0M754 214h0M754 218h0M754 222h0M770 198h0M774 198h0M778 198h0M782 198h0M786 198h0M778 202h0M778 206h0M778 210h0M778 214h0M778 218h0M770 222h0M774 222h0M778 222h0M782 222h0M786 222h0M794 198h0M810 198h0M794 202h0M798 202h0M806 202h0M810 202h0M794 206h0M802 206h0M810 206h0M794 210h0M802 210h0M810 210h0M794 214h0M810 214h0M794 218h0M810 218h0M794 222h0M810 222h0M818 198h0M822 198h0M826 198h0M830 198h0M834 198h0M818 202h0M818 206h0M818 210h0M822 210h0M826 210h0M830 210h0M818 214h0M818 218h0M818 222h0M822 222h0M826 222h0M830 222h0M834 222h0"/></g><g opacity="0"><animate attributeName="opacity" from="0" to="1" dur=".4s" begin="0.45s" fill="freeze"/><path class="" stroke="#f2f2f2" stroke-width="3.2" stroke-linecap="round" fill="none" d="M30 234h0M34 234h0M38 234h0M42 234h0M30 238h0M46 238h0M30 242h0M46 242h0M30 246h0M46 246h0M30 250h0M46 250h0M30 254h0M46 254h0M30 258h0M34 258h0M38 258h0M42 258h0M58 234h0M62 234h0M66 234h0M54 238h0M70 238h0M54 242h0M66 242h0M70 242h0M54 246h0M62 246h0M70 246h0M54 250h0M58 250h0M70 250h0M54 254h0M70 254h0M58 258h0M62 258h0M66 258h0M90 234h0M86 238h0M90 238h0M82 242h0M90 242h0M78 246h0M90 246h0M78 250h0M82 250h0M86 250h0M90 250h0M94 250h0M90 254h0M90 258h0"/><path class="" stroke="#f2f2f2" stroke-width="3.2" stroke-linecap="round" fill="none" d="M194 234h0M210 234h0M194 238h0M210 238h0M194 242h0M210 242h0M194 246h0M210 246h0M194 250h0M210 250h0M194 254h0M210 254h0M198 258h0M202 258h0M206 258h0M218 234h0M222 234h0M226 234h0M230 234h0M234 234h0M226 238h0M226 242h0M226 246h0M226 250h0M226 254h0M218 258h0M222 258h0M226 258h0M230 258h0M234 258h0M266 234h0M282 234h0M266 238h0M282 238h0M266 242h0M282 242h0M266 246h0M282 246h0M266 250h0M282 250h0M266 254h0M282 254h0M270 258h0M274 258h0M278 258h0M290 234h0M306 234h0M290 238h0M306 238h0M294 242h0M302 242h0M298 246h0M294 250h0M302 250h0M290 254h0M306 254h0M290 258h0M306 258h0"/><path class="" stroke="#f2f2f2" stroke-width="3.2" stroke-linecap="round" fill="none" d="M678 234h0M682 234h0M686 234h0M674 238h0M690 238h0M674 242h0M690 242h0M674 246h0M690 246h0M674 250h0M690 250h0M674 254h0M690 254h0M678 258h0M682 258h0M686 258h0M698 234h0M714 234h0M698 238h0M702 238h0M714 238h0M698 242h0M706 242h0M714 242h0M698 246h0M710 246h0M714 246h0M698 250h0M714 250h0M698 254h0M714 254h0M698 258h0M714 258h0M746 234h0M750 234h0M754 234h0M758 234h0M762 234h0M754 238h0M754 242h0M754 246h0M754 250h0M754 254h0M754 258h0M770 234h0M774 234h0M778 234h0M782 234h0M786 234h0M778 238h0M778 242h0M778 246h0M778 250h0M778 254h0M770 258h0M774 258h0M778 258h0M782 258h0M786 258h0M794 234h0M810 234h0M794 238h0M798 238h0M806 238h0M810 238h0M794 242h0M802 242h0M810 242h0M794 246h0M802 246h0M810 246h0M794 250h0M810 250h0M794 254h0M810 254h0M794 258h0M810 258h0M818 234h0M822 234h0M826 234h0M830 234h0M834 234h0M818 238h0M818 242h0M818 246h0M822 246h0M826 246h0M830 246h0M818 250h0M818 254h0M818 258h0M822 258h0M826 258h0M830 258h0M834 258h0"/></g></g></svg>